<svg xmlns="http://www.w3.org/2000/svg" viewBox="0 0 722 478.17"><g id="Слой_2" data-name="Слой 2"><g id="Слой_1-2" data-name="Слой 1"><rect x="226.1" width="269.8" height="59.07" rx="9.46"/><rect x="226.1" y="76.66" width="269.8" height="59.07" rx="9.46"/><rect x="226.1" y="153.32" width="269.8" height="59.07" rx="9.46"/><rect y="322.56" width="722" height="30.53"/><path d="M427.4,228.09a66.4,66.4,0,0,0-66.4,66.4,66.4,66.4,0,0,0-66.4-66.4H0v85.18H722V228.09Z"/><path d="M43.69,477.87H0V361.5H43.69v25.44C61.36,382,74.52,373.87,81.75,361.5h50.11c-11.45,18.36-26.14,32.48-46,39.88C115.73,428.59,131,453.94,135,477.87H93.36c-6.19-23.45-21-46.9-40.93-60.18-6.65-4.43-8.74.44-8.74.44Z"/><rect x="145.68" y="361.5" width="43.69" height="116.37"/><path d="M517.47,477.87H436.83V361.5H555v27.27H480.52v64.87h31.64c18.42,0,31.19-39.16-23.56-29.2V401.38C585,377.81,595.79,478.17,517.47,477.87Z"/><polygon points="277.76 477.87 236.39 477.87 236.39 422.67 197.78 422.67 197.78 393.69 236.39 393.69 236.39 361.5 277.76 361.5 277.76 477.87"/><path d="M382.9,361.5c-1,28.43-15.6,50.66-15.6,50.66-17.87-11.72-29.21-28.47-33.51-50.66H291.15c1.86,29.58,21,53.85,50.44,74.93,0,0-14.44,10.41-41.65,13.23v28.21c67.86,5.14,124-56.25,125.94-116.37Z"/><path d="M665.81,361.5H627c-27.83,35.49-41.61,75.15-50.11,116.37h41.32c5.45-28.18,14.17-55.28,28.08-80.66a225.84,225.84,0,0,1,16.29,37h-25c-3.3,7.89-6.12,16.37-7.19,25.22H670.2c1.61,6,3.14,12.15,4.57,18.42h42.47C709.23,435.43,693.18,396.2,665.81,361.5Z"/></g></g></svg>