<svg xmlns="http://www.w3.org/2000/svg" viewBox="0 0 216.66 156.51"><g id="Слой_2" data-name="Слой 2"><g id="Слой_1-2" data-name="Слой 1"><path d="M107.63,30.69,111,1.55A1.39,1.39,0,0,0,109.59,0H67.11A1.38,1.38,0,0,0,66,.59L60.21,8.75a1,1,0,0,1-1.74-.27L56.14,1A1.42,1.42,0,0,0,54.8,0H13.5a1.4,1.4,0,0,0-1.39,1.24L0,106.7a1.4,1.4,0,0,0,1.39,1.56H97.48A1.4,1.4,0,0,0,98.87,107l.48-4.21A1.39,1.39,0,0,0,98,101.26H46.73a.21.21,0,0,1,0-.41L75,95.56a1.07,1.07,0,0,1,.25,0H98.94a1.4,1.4,0,0,0,1.39-1.23l.48-4.21a1.4,1.4,0,0,0-1.39-1.56H74.56a1.07,1.07,0,0,0-.25,0l-25.14,4.7a.19.19,0,0,1-.1-.37l27.24-10a1.36,1.36,0,0,1,.48-.09H100.4a1.4,1.4,0,0,0,1.39-1.23l.48-4.21a1.4,1.4,0,0,0-1.39-1.56H75.55a1.32,1.32,0,0,0-.48.09L53.38,83.85a.22.22,0,0,1-.18-.4L77.69,70.26a1.45,1.45,0,0,1,.67-.17h23.5a1.4,1.4,0,0,0,1.39-1.23l.48-4.21a1.4,1.4,0,0,0-1.39-1.56H76.59a1.38,1.38,0,0,0-.66.17L58.22,72.8a.2.2,0,0,1-.21-.33L79.1,57.63a1.39,1.39,0,0,1,.81-.26h23.41a1.4,1.4,0,0,0,1.39-1.23l.48-4.21a1.4,1.4,0,0,0-1.39-1.56H77.69a1.34,1.34,0,0,0-.8.26L61.15,61.7,80.53,45a1.39,1.39,0,0,1,.91-.34h23.34a1.4,1.4,0,0,0,1.39-1.23l.48-4.21a1.4,1.4,0,0,0-1.39-1.56H78.84a1.39,1.39,0,0,0-.91.34L67.82,46.71,82,32.35a1.4,1.4,0,0,1,1-.42h23.27A1.4,1.4,0,0,0,107.63,30.69ZM77.4,27,10.2,95.19a1,1,0,0,1-1.73-.82L18.36,8.24A1.39,1.39,0,0,1,19.74,7H49.65A1.4,1.4,0,0,1,51,8l1.4,4.48,3.38,10.86a1.4,1.4,0,0,0,2.48.39l6.55-9.29L69.6,7.59A1.38,1.38,0,0,1,70.74,7h31.39a1,1,0,0,1,1,1.17L101.35,24a1,1,0,0,1-1,.91H80a1.38,1.38,0,0,0-1,.42Z"/><path d="M135.62,76.49a.79.79,0,0,1,.65.3.76.76,0,0,1,.2.65,1.71,1.71,0,0,1-.27.54l-9.55,13a1.41,1.41,0,0,0-.13,1.45l7,14a.71.71,0,0,1,0,.5.91.91,0,0,1-.34.74,1.11,1.11,0,0,1-.78.29h-6.3a1.4,1.4,0,0,1-1-.33,3.21,3.21,0,0,1-.43-.52l-5.17-10.69a1.39,1.39,0,0,0-1.25-.79h-1.32a1.4,1.4,0,0,0-1.38,1.23l-1.25,10a1.06,1.06,0,0,1-.39.79,1.28,1.28,0,0,1-.87.33h-5.8a1,1,0,0,1-.77-.31,1.15,1.15,0,0,1-.27-.81l3.69-29.25a1.21,1.21,0,0,1,.4-.81,1.25,1.25,0,0,1,.85-.32h5.81a1,1,0,0,1,.79.32,1,1,0,0,1,.25.81l-1.19,9.27a1.4,1.4,0,0,0,1.39,1.57h.39a1.39,1.39,0,0,0,1.14-.58l7.56-10.53a2.63,2.63,0,0,1,.71-.61,2.16,2.16,0,0,1,1.06-.25Z"/><path d="M139.23,108a1,1,0,0,1-.75-.33,1.07,1.07,0,0,1-.25-.84l3.65-29.2a1.13,1.13,0,0,1,.43-.81,1.32,1.32,0,0,1,.87-.32H149a1,1,0,0,1,.75.32,1,1,0,0,1,.25.81l-1.67,13.46a1.4,1.4,0,0,0,2.47,1l12.05-14.78a2.79,2.79,0,0,1,.67-.61,1.68,1.68,0,0,1,.92-.25h5.22a1,1,0,0,1,.79.32,1,1,0,0,1,.25.81L167,106.87a1.3,1.3,0,0,1-.41.79,1.19,1.19,0,0,1-.85.33h-5.8a1,1,0,0,1-.8-.33,1,1,0,0,1-.24-.79L160.53,94a1.4,1.4,0,0,0-2.45-1.08l-12,14.26a1.86,1.86,0,0,1-.54.56,1.58,1.58,0,0,1-1,.29Z"/><path d="M174.24,108a1,1,0,0,1-.8-.33,1,1,0,0,1-.24-.79l3.69-29.25a1.13,1.13,0,0,1,.43-.81,1.25,1.25,0,0,1,.82-.32h6.08a1,1,0,0,1,.75.32,1,1,0,0,1,.25.81l-3.65,29.25a1.28,1.28,0,0,1-.43.79,1.23,1.23,0,0,1-.83.33Zm-.12-33.75a.91.91,0,0,1-.7-.27,1,1,0,0,1-.2-.76l.5-4.1a1.11,1.11,0,0,1,.38-.74,1.2,1.2,0,0,1,.79-.29H179a.89.89,0,0,1,.7.29,1,1,0,0,1,.2.74l-.54,4.1A1.07,1.07,0,0,1,179,74a1.19,1.19,0,0,1-.78.27Zm10.62,0a.85.85,0,0,1-.68-.27,1,1,0,0,1-.17-.76l.49-4.1a1.24,1.24,0,0,1,.36-.74,1.16,1.16,0,0,1,.81-.29h4.1a.89.89,0,0,1,.7.29,1,1,0,0,1,.2.74l-.5,4.1a1.06,1.06,0,0,1-.38.76,1.24,1.24,0,0,1-.79.27Z"/><path d="M188.86,108a1,1,0,0,1-.75-.33,1,1,0,0,1-.24-.79l3.65-29.25a1.15,1.15,0,0,1,.42-.81,1.27,1.27,0,0,1,.83-.32H206a15.4,15.4,0,0,1,6.13,1.08,7.69,7.69,0,0,1,3.67,3.09,8.08,8.08,0,0,1-.14,7.69,7.78,7.78,0,0,1-1.72,2l-.12.1a1.43,1.43,0,0,0-.18,2.13,7.35,7.35,0,0,1,1.24,1.58,6.37,6.37,0,0,1,.78,4.29,12,12,0,0,1-1.73,5.11,8.8,8.8,0,0,1-3.9,3.29,15.63,15.63,0,0,1-6.4,1.14Zm7.88-7.41a1.38,1.38,0,0,0,1.38,1.56h4.68a4.2,4.2,0,0,0,3-1.12,4.35,4.35,0,0,0,1.35-2.57,3.47,3.47,0,0,0-.57-2.65,3.33,3.33,0,0,0-2.86-1.08H198.7a1.38,1.38,0,0,0-1.38,1.22Zm1.65-13.15A1.39,1.39,0,0,0,199.77,89h4.17a4.26,4.26,0,0,0,2.93-1,3.8,3.8,0,0,0,1.28-2.41,3.1,3.1,0,0,0-.52-2.36,3.06,3.06,0,0,0-2.56-.93h-4.8a1.4,1.4,0,0,0-1.39,1.22Z"/><path d="M51,150.66a18.79,18.79,0,0,1-5.55-.72A10.51,10.51,0,0,1,41.72,148a7.13,7.13,0,0,1-2.07-2.76,8.29,8.29,0,0,1-.63-3.13,1,1,0,0,1,.37-.66,1.16,1.16,0,0,1,.72-.24H45a1.58,1.58,0,0,1,.8.18,1.24,1.24,0,0,1,.49.67,3.33,3.33,0,0,0,1.57,2,6.73,6.73,0,0,0,3.53.76,9.29,9.29,0,0,0,3.11-.47A5.74,5.74,0,0,0,56.74,143a3.78,3.78,0,0,0,1.07-2.14,3.07,3.07,0,0,0-1.11-3,6.38,6.38,0,0,0-3.92-1H49.49a.86.86,0,0,1-.74-.33,1.09,1.09,0,0,1-.21-.79l.4-3.15a1.24,1.24,0,0,1,.4-.83,1.16,1.16,0,0,1,.85-.34h3.15a6.5,6.5,0,0,0,3.52-.88,3.58,3.58,0,0,0,1.64-2.81,2.67,2.67,0,0,0-.32-1.89,3.24,3.24,0,0,0-1.55-1.26,6.4,6.4,0,0,0-2.53-.45,8.06,8.06,0,0,0-3.61.72,4,4,0,0,0-2,2.11,1.48,1.48,0,0,1-.53.63,1.52,1.52,0,0,1-.79.18h-5a.83.83,0,0,1-.65-.27.76.76,0,0,1-.2-.67,10,10,0,0,1,3.87-5.9,13,13,0,0,1,4-1.93,19.29,19.29,0,0,1,5.6-.72,14.86,14.86,0,0,1,6.41,1.23A9,9,0,0,1,65,122.74a6.25,6.25,0,0,1,.92,4.34,9.93,9.93,0,0,1-1.17,3.6,6.51,6.51,0,0,1-1.61,1.93,1.4,1.4,0,0,0,0,2.13,5.94,5.94,0,0,1,.82.93,6.88,6.88,0,0,1,1.13,2.61,8.94,8.94,0,0,1,.09,2.88,9.32,9.32,0,0,1-2.2,5,12.23,12.23,0,0,1-4.86,3.33A19,19,0,0,1,51,150.66Z"/><path d="M70.6,150.21a1,1,0,0,1-.77-.32,1,1,0,0,1-.23-.81l3.65-29.25a1.21,1.21,0,0,1,.4-.81,1.24,1.24,0,0,1,.85-.31h5a1,1,0,0,1,.77.31,1,1,0,0,1,.23.81l-1.2,9.68a1.39,1.39,0,0,0,1.38,1.57H90a1.39,1.39,0,0,0,1.38-1.22l1.25-10A1.21,1.21,0,0,1,93,119a1.24,1.24,0,0,1,.85-.31h5a1,1,0,0,1,.77.31,1,1,0,0,1,.23.81l-3.7,29.25a1.23,1.23,0,0,1-.37.81,1.18,1.18,0,0,1-.83.32H90a1,1,0,0,1-.77-.32,1,1,0,0,1-.23-.81l1.26-10a1.39,1.39,0,0,0-1.38-1.57H79.49a1.39,1.39,0,0,0-1.39,1.22l-1.35,10.39a1.23,1.23,0,0,1-.37.81,1.18,1.18,0,0,1-.83.32Z"/><path d="M101,156.51a.94.94,0,0,1-.73-.32,1,1,0,0,1-.22-.81l1.28-10.48a1.3,1.3,0,0,1,.41-.79,1.19,1.19,0,0,1,.85-.34h.85a2.56,2.56,0,0,0,2-1,9.57,9.57,0,0,0,1.59-2.92,33.37,33.37,0,0,0,1.28-4.64c.38-1.81.7-3.85,1-6.1l1.17-9.27a1.21,1.21,0,0,1,.4-.81,1.19,1.19,0,0,1,.81-.31h20.25a1,1,0,0,1,.77.31,1,1,0,0,1,.23.81l-2.8,22.37a1.4,1.4,0,0,0,1.39,1.57H132a1,1,0,0,1,.77.34,1,1,0,0,1,.23.79l-1.29,10.48a1.26,1.26,0,0,1-.4.79,1.18,1.18,0,0,1-.85.34h-5a.92.92,0,0,1-.77-.34,1,1,0,0,1-.23-.79l.44-3.61a1.4,1.4,0,0,0-1.39-1.56H109.1a1.39,1.39,0,0,0-1.39,1.23l-.48,3.94a1.26,1.26,0,0,1-.4.79,1.18,1.18,0,0,1-.85.34Zm13.44-12.74h7a1.39,1.39,0,0,0,1.38-1.22l2-15.88a1.4,1.4,0,0,0-1.39-1.57h-5.55a1.38,1.38,0,0,0-1.38,1.22l-.46,3.68a56.83,56.83,0,0,1-1.66,8.53,22.7,22.7,0,0,1-1.22,3.28A1.39,1.39,0,0,0,114.47,143.77Z"/><path d="M138.19,150.21a1,1,0,0,1-.75-.32,1,1,0,0,1-.25-.81l3.74-29.25a1.24,1.24,0,0,1,.38-.81,1.16,1.16,0,0,1,.83-.31h5.13a1,1,0,0,1,.77.31,1,1,0,0,1,.23.81l-3.7,29.25a1.24,1.24,0,0,1-.38.81,1.16,1.16,0,0,1-.83.32Z"/><path d="M152.23,150.21a1,1,0,0,1-.77-.32,1,1,0,0,1-.23-.81l3.65-29.25a1.21,1.21,0,0,1,.4-.81,1.24,1.24,0,0,1,.85-.31h20.39a1,1,0,0,1,.77.31,1,1,0,0,1,.23.81l-.41,3.6a1.37,1.37,0,0,1-.45.81,1.23,1.23,0,0,1-.85.32H162.5a1.39,1.39,0,0,0-1.38,1.21l-.55,4.23a1.39,1.39,0,0,0,1.38,1.58h12a1,1,0,0,1,.77.31,1,1,0,0,1,.23.81l-.43,3.33a1.26,1.26,0,0,1-.4.79,1.18,1.18,0,0,1-.85.34H160.91a1.39,1.39,0,0,0-1.38,1.22l-.55,4.41a1.39,1.39,0,0,0,1.38,1.57h13.32a1,1,0,0,1,.77.31,1,1,0,0,1,.22.81l-.45,3.6a1.17,1.17,0,0,1-.4.81,1.23,1.23,0,0,1-.85.32Z"/><path d="M180,150.21a.94.94,0,0,1-.73-.32,1.2,1.2,0,0,1-.27-.81l3.69-29.25a1.22,1.22,0,0,1,.41-.81,1.15,1.15,0,0,1,.8-.31h24.3a1,1,0,0,1,.79.31,1,1,0,0,1,.26.81l-3.7,29.25a1.21,1.21,0,0,1-.4.81,1.25,1.25,0,0,1-.85.32h-5a.94.94,0,0,1-.73-.32,1.2,1.2,0,0,1-.27-.81l2.83-22.41a1.39,1.39,0,0,0-1.38-1.57H190.5a1.38,1.38,0,0,0-1.38,1.22l-2.88,22.76a1.21,1.21,0,0,1-.4.81,1.25,1.25,0,0,1-.85.32Z"/></g></g></svg>