<svg xmlns="http://www.w3.org/2000/svg" viewBox="0 0 7191.07 2762.26"><defs><style>.cls-1{fill:#9b8989;}.cls-2{fill:#c9c0c0;}.cls-3{fill:#bfb6b6;}.cls-4{fill:#a09797;}.cls-5{fill:#afa5a5;}.cls-6{fill:#baa8a8;}.cls-7{fill:#c4b1b1;}.cls-8{fill:#d6cece;}.cls-9{fill:#c9c3c3;}.cls-10{fill:#baaaaa;}.cls-11{fill:#c9bcbc;}.cls-12{fill:#e5cf2c;}.cls-13{fill:#e80f0f;}.cls-14{fill:#af9e9e;}.cls-15{fill:#c1b8b8;}.cls-16{fill:#b5acac;}.cls-17{fill:#a39393;}.cls-18{fill:#998c8c;}.cls-19{fill:#7c7171;}.cls-20{fill:#897c7c;}.cls-21{fill:#999090;}.cls-22{fill:#1e1d1d;}.cls-23{fill:#353334;}.cls-24{fill:#2d2b2c;}.cls-25{fill:#302c2c;}.cls-26{fill:#bfb9b4;}.cls-27{fill:#33312f;}.cls-28{fill:#d3a039;}.cls-29{fill:#d1a033;}.cls-30{fill:#b58524;}.cls-31{fill:#e2b042;}.cls-32{fill:#dba340;}.cls-33{fill:#f2c34c;}.cls-34{fill:#e5b148;}.cls-35{fill:#211f1f;}.cls-36{fill:#49b8ea;}.cls-37{fill:#44a8e0;}.cls-38{fill:#f26c2a;}.cls-39{fill:#e2641e;}.cls-40{fill:#232020;}.cls-41{fill:#9e8f8f;}.cls-42{fill:#776f6f;}.cls-43{fill:#877c7c;}.cls-44{fill:#7f7777;}.cls-45{fill:#9b9191;}.cls-46{fill:#bcb8ac;}.cls-47{fill:#e8b749;}.cls-48{fill:#3f3e3b;}.cls-49{fill:#353431;}.cls-50{fill:#c99e31;}.cls-51{fill:#c99a32;}.cls-52{fill:#44433f;}.cls-53{fill:#afab9e;}.cls-54{fill:#ceccc4;}.cls-55{fill:#d3a637;}.cls-56{fill:#383738;}.cls-57{fill:#4f4e4a;}.cls-58{fill:#d8a339;}.cls-59{fill:#191819;}.cls-60{fill:#544e4e;}.cls-61{fill:#3a3737;}.cls-62{fill:#afa7a7;}.cls-63{fill:#a09898;}.cls-64{fill:#a09a9a;}.cls-65{fill:#706666;}.cls-66{fill:#b2aaaa;}.cls-67{fill:#c4bbbb;}.cls-68{fill:#7a7272;}.cls-69{fill:#8e8585;}.cls-70{fill:#b7aeae;}.cls-71{fill:#847b7b;}.cls-72{fill:#3f3d36;}.cls-73{fill:#302e2b;}.cls-74{fill:#c4a130;}.cls-75{fill:#41bbe5;}.cls-76{fill:#4fcfed;}.cls-77{fill:#33312e;}.cls-78{fill:#e0b53b;}.cls-79{fill:#d3a533;}.cls-80{fill:#3f3d38;}.cls-81{fill:#8c8383;}.cls-82{fill:#dbcc5a;}.cls-83{fill:#ccba4c;}.cls-84{fill:#e2dcdc;}.cls-85{fill:#d3cbcb;}.cls-86{fill:#3c96d3;}.cls-87{fill:#fff;}.cls-88{fill:#8c8080;}.cls-89{fill:#6b6262;}.cls-90{fill:#ccbcbc;}.cls-91{fill:#877b7b;}.cls-92{fill:#665d5d;}.cls-93{fill:#5e5656;}.cls-94{fill:#5dc7e8;}.cls-95{fill:#6bd5ed;}.cls-96{fill:#685e5e;}.cls-97{fill:#dbd742;}.cls-98{fill:#a59898;}.cls-99{fill:#847a7a;}.cls-100{fill:#635a5a;}.cls-101{fill:#d6c5c5;}.cls-102{fill:#dcc;}.cls-103{fill:#cebcbc;}.cls-104{fill:#efefef;}.cls-105{fill:#d31616;}.cls-106{fill:#655656;}.cls-107{fill:#544d4d;}.cls-108{fill:#5b5353;}</style></defs><g id="Слой_2" data-name="Слой 2"><g id="Livello_1" data-name="Livello 1"><rect class="cls-1" x="1672.75" y="1618.03" width="474.67" height="1100.96"/><path class="cls-2" d="M1965.27,1165.07V2728l373.67-19.84,142.93,7.59C2397,2314.6,2205.32,1347.5,2141.63,1025.32Z"/><path class="cls-3" d="M2712.6,1165.07l-369-292.42v.23l-4.64-4.88-4.65,4.65-192.66,152.67C2205.32,1347.5,2397,2314.6,2481.87,2715.76L2712.6,2728Z"/><rect class="cls-1" x="4277.4" y="1452.61" width="474.67" height="1254.82"/><polygon class="cls-4" points="2182.06 1295.61 2182.06 1495.63 2235.72 1495.63 2202.16 1295.61 2182.06 1295.61"/><polygon class="cls-5" points="2285.86 1295.61 2202.16 1295.61 2235.72 1495.63 2285.86 1495.63 2285.86 1295.61"/><polygon class="cls-4" points="2392.01 1295.61 2392.01 1495.63 2445.67 1495.63 2412.11 1295.61 2392.01 1295.61"/><polygon class="cls-5" points="2495.81 1295.61 2412.11 1295.61 2445.67 1495.63 2495.81 1495.63 2495.81 1295.61"/><polygon class="cls-4" points="2182.06 1578.23 2182.06 1778.25 2235.72 1778.25 2202.16 1578.23 2182.06 1578.23"/><polygon class="cls-5" points="2285.86 1578.23 2202.16 1578.23 2235.72 1778.25 2285.86 1778.25 2285.86 1578.23"/><polygon class="cls-4" points="2392.01 1578.23 2392.01 1778.25 2445.67 1778.25 2412.11 1578.23 2392.01 1578.23"/><polygon class="cls-5" points="2495.81 1578.23 2412.11 1578.23 2445.67 1778.25 2495.81 1778.25 2495.81 1578.23"/><polygon class="cls-4" points="2182.06 1860.85 2182.06 2060.87 2235.72 2060.87 2202.16 1860.85 2182.06 1860.85"/><polygon class="cls-5" points="2285.86 1860.85 2202.16 1860.85 2235.72 2060.87 2285.86 2060.87 2285.86 1860.85"/><polygon class="cls-4" points="2392.01 1860.85 2392.01 2060.87 2445.67 2060.87 2412.11 1860.85 2392.01 1860.85"/><polygon class="cls-5" points="2495.81 1860.85 2412.11 1860.85 2445.67 2060.87 2495.81 2060.87 2495.81 1860.85"/><polygon class="cls-4" points="2182.06 2143.46 2182.06 2343.49 2235.72 2343.49 2202.16 2143.46 2182.06 2143.46"/><polygon class="cls-5" points="2285.86 2143.46 2202.16 2143.46 2235.72 2343.49 2285.86 2343.49 2285.86 2143.46"/><polygon class="cls-4" points="2392.01 2143.46 2392.01 2343.49 2445.67 2343.49 2412.11 2143.46 2392.01 2143.46"/><polygon class="cls-5" points="2495.81 2143.46 2412.11 2143.46 2445.67 2343.49 2495.81 2343.49 2495.81 2143.46"/><polygon class="cls-4" points="2182.06 2428.54 2182.06 2628.56 2235.72 2628.56 2202.16 2428.54 2182.06 2428.54"/><polygon class="cls-5" points="2285.86 2428.54 2202.16 2428.54 2235.72 2628.56 2285.86 2628.56 2285.86 2428.54"/><polygon class="cls-4" points="2392.01 2428.54 2392.01 2628.56 2445.67 2628.56 2412.11 2428.54 2392.01 2428.54"/><polygon class="cls-5" points="2495.81 2428.54 2412.11 2428.54 2445.67 2628.56 2495.81 2628.56 2495.81 2428.54"/><polygon class="cls-6" points="4576.59 1197.45 4576.59 2732.03 5091.43 2732.03 4812.69 1260.81 4576.59 1197.45"/><polygon class="cls-7" points="5235.77 1374.34 4812.69 1260.81 5091.43 2732.03 5235.77 2732.03 5235.77 1374.34"/><polygon class="cls-8" points="1278.52 1452.61 1278.52 2732.03 1668.4 2732.03 1456.9 1452.61 1278.52 1452.61"/><polygon class="cls-9" points="1910.08 1452.61 1456.9 1452.61 1668.4 2732.03 1910.08 2732.03 1910.08 1452.61"/><path class="cls-10" d="M6635.72,2236.66v498.27a9.16,9.16,0,0,0,9.13-9.13v-480A9.16,9.16,0,0,0,6635.72,2236.66Z"/><path class="cls-11" d="M6626.58,2245.79v480a9.16,9.16,0,0,0,9.14,9.13V2236.66A9.16,9.16,0,0,0,6626.58,2245.79Z"/><path class="cls-10" d="M7033.27,2236.66v498.27a9.16,9.16,0,0,0,9.14-9.13v-480A9.16,9.16,0,0,0,7033.27,2236.66Z"/><path class="cls-11" d="M7024.14,2245.79v480a9.16,9.16,0,0,0,9.13,9.13V2236.66A9.16,9.16,0,0,0,7024.14,2245.79Z"/><rect class="cls-12" x="6581.41" y="2267" width="506.17" height="86.56"/><polygon class="cls-13" points="6632.84 2353.56 6659.91 2267 6711.34 2267 6682.91 2353.56 6632.84 2353.56"/><polygon class="cls-13" points="6741.11 2353.56 6768.18 2267 6819.61 2267 6791.19 2353.56 6741.11 2353.56"/><polygon class="cls-13" points="6849.38 2353.56 6876.45 2267 6927.88 2267 6899.46 2353.56 6849.38 2353.56"/><polygon class="cls-13" points="6957.65 2353.56 6984.72 2267 7036.15 2267 7007.73 2353.56 6957.65 2353.56"/><rect class="cls-12" x="6581.41" y="2389.48" width="506.17" height="86.56"/><polygon class="cls-13" points="6632.84 2476.04 6659.91 2389.48 6711.34 2389.48 6682.91 2476.04 6632.84 2476.04"/><polygon class="cls-13" points="6741.11 2476.04 6768.18 2389.48 6819.61 2389.48 6791.19 2476.04 6741.11 2476.04"/><polygon class="cls-13" points="6849.38 2476.04 6876.45 2389.48 6927.88 2389.48 6899.46 2476.04 6849.38 2476.04"/><polygon class="cls-13" points="6957.65 2476.04 6984.72 2389.48 7036.15 2389.48 7007.73 2476.04 6957.65 2476.04"/><polygon class="cls-2" points="3634.11 1021.42 3634.11 2732.03 4253.26 2732.03 3916.55 1021.42 3634.11 1021.42"/><polygon class="cls-6" points="2904.21 1425.35 2904.21 2703.39 3496.63 2703.39 3207.14 1425.35 2904.21 1425.35"/><polygon class="cls-14" points="3723.53 1425.35 3207.14 1425.35 3496.63 2703.39 3723.53 2703.39 3723.53 1425.35"/><polygon class="cls-3" points="4253.26 2732.03 4425.85 2732.03 4425.85 1021.42 3916.55 1021.42 4253.26 2732.03"/><polygon class="cls-15" points="1387.1 1593.11 1387.1 1744.11 1468.99 1744.11 1425.19 1593.11 1387.1 1593.11"/><polygon class="cls-16" points="1528.34 1593.11 1425.19 1593.11 1468.99 1744.11 1528.34 1744.11 1528.34 1593.11"/><polygon class="cls-15" points="1387.1 1875.73 1387.1 2026.73 1468.99 2026.73 1425.19 1875.73 1387.1 1875.73"/><polygon class="cls-16" points="1528.34 1875.73 1425.19 1875.73 1468.99 2026.73 1528.34 2026.73 1528.34 1875.73"/><polygon class="cls-15" points="1387.1 2158.35 1387.1 2309.34 1468.99 2309.34 1425.19 2158.35 1387.1 2158.35"/><polygon class="cls-16" points="1528.34 2158.35 1425.19 2158.35 1468.99 2309.34 1528.34 2309.34 1528.34 2158.35"/><polygon class="cls-15" points="1387.1 2440.96 1387.1 2591.96 1468.99 2591.96 1425.19 2440.96 1387.1 2440.96"/><polygon class="cls-16" points="1528.34 2440.96 1425.19 2440.96 1468.99 2591.96 1528.34 2591.96 1528.34 2440.96"/><polygon class="cls-15" points="1660.26 1593.11 1660.26 1744.11 1742.15 1744.11 1698.36 1593.11 1660.26 1593.11"/><polygon class="cls-16" points="1801.5 1593.11 1698.36 1593.11 1742.15 1744.11 1801.5 1744.11 1801.5 1593.11"/><polygon class="cls-15" points="1660.26 1875.73 1660.26 2026.73 1742.15 2026.73 1698.36 1875.73 1660.26 1875.73"/><polygon class="cls-16" points="1801.5 1875.73 1698.36 1875.73 1742.15 2026.73 1801.5 2026.73 1801.5 1875.73"/><polygon class="cls-15" points="1660.26 2158.35 1660.26 2309.34 1742.15 2309.34 1698.36 2158.35 1660.26 2158.35"/><polygon class="cls-16" points="1801.5 2158.35 1698.36 2158.35 1742.15 2309.34 1801.5 2309.34 1801.5 2158.35"/><polygon class="cls-15" points="1660.26 2440.96 1660.26 2591.96 1742.15 2591.96 1698.36 2440.96 1660.26 2440.96"/><polygon class="cls-16" points="1801.5 2440.96 1698.36 2440.96 1742.15 2591.96 1801.5 2591.96 1801.5 2440.96"/><polygon class="cls-17" points="4699.47 1681.82 4699.47 1554.23 4729.24 1554.23 4723.15 1520.2 4679.31 1520.2 4679.31 1715.85 4758.16 1715.85 4752.07 1681.82 4699.47 1681.82"/><polygon class="cls-18" points="4793.91 1520.2 4723.15 1520.2 4729.24 1554.23 4773.75 1554.23 4773.75 1681.82 4752.07 1681.82 4758.16 1715.85 4793.91 1715.85 4793.91 1520.2"/><polygon class="cls-19" points="4773.75 1681.82 4773.75 1554.23 4729.24 1554.23 4752.07 1681.82 4773.75 1681.82"/><polygon class="cls-20" points="4699.47 1681.82 4752.07 1681.82 4729.24 1554.23 4699.47 1554.23 4699.47 1681.82"/><polygon class="cls-17" points="4869.03 1681.82 4869.03 1554.23 4898.81 1554.23 4892.72 1520.2 4848.88 1520.2 4848.88 1715.85 4927.73 1715.85 4921.64 1681.82 4869.03 1681.82"/><polygon class="cls-18" points="4963.48 1520.2 4892.72 1520.2 4898.81 1554.23 4943.32 1554.23 4943.32 1681.82 4921.64 1681.82 4927.73 1715.85 4963.48 1715.85 4963.48 1520.2"/><polygon class="cls-19" points="4943.32 1681.82 4943.32 1554.23 4898.81 1554.23 4921.64 1681.82 4943.32 1681.82"/><polygon class="cls-20" points="4869.03 1681.82 4921.64 1681.82 4898.81 1554.23 4869.03 1554.23 4869.03 1681.82"/><polygon class="cls-17" points="5038.61 1681.82 5038.61 1554.23 5068.38 1554.23 5062.29 1520.2 5018.45 1520.2 5018.45 1715.85 5097.3 1715.85 5091.21 1681.82 5038.61 1681.82"/><polygon class="cls-18" points="5133.05 1520.2 5062.29 1520.2 5068.38 1554.23 5112.89 1554.23 5112.89 1681.82 5091.21 1681.82 5097.3 1715.85 5133.05 1715.85 5133.05 1520.2"/><polygon class="cls-19" points="5112.89 1681.82 5112.89 1554.23 5068.38 1554.23 5091.21 1681.82 5112.89 1681.82"/><polygon class="cls-20" points="5038.61 1681.82 5091.21 1681.82 5068.38 1554.23 5038.61 1554.23 5038.61 1681.82"/><polygon class="cls-17" points="4699.47 1964.43 4699.47 1836.85 4729.24 1836.85 4723.15 1802.82 4679.31 1802.82 4679.31 1998.47 4758.16 1998.47 4752.07 1964.43 4699.47 1964.43"/><polygon class="cls-18" points="4793.91 1802.82 4723.15 1802.82 4729.24 1836.85 4773.75 1836.85 4773.75 1964.43 4752.07 1964.43 4758.16 1998.47 4793.91 1998.47 4793.91 1802.82"/><polygon class="cls-19" points="4773.75 1964.43 4773.75 1836.85 4729.24 1836.85 4752.07 1964.43 4773.75 1964.43"/><polygon class="cls-20" points="4699.47 1964.43 4752.07 1964.43 4729.24 1836.85 4699.47 1836.85 4699.47 1964.43"/><polygon class="cls-17" points="4869.03 1964.43 4869.03 1836.85 4898.81 1836.85 4892.72 1802.82 4848.88 1802.82 4848.88 1998.47 4927.73 1998.47 4921.64 1964.43 4869.03 1964.43"/><polygon class="cls-18" points="4963.48 1802.82 4892.72 1802.82 4898.81 1836.85 4943.32 1836.85 4943.32 1964.43 4921.64 1964.43 4927.73 1998.47 4963.48 1998.47 4963.48 1802.82"/><polygon class="cls-19" points="4943.32 1964.43 4943.32 1836.85 4898.81 1836.85 4921.64 1964.43 4943.32 1964.43"/><polygon class="cls-20" points="4869.03 1964.43 4921.64 1964.43 4898.81 1836.85 4869.03 1836.85 4869.03 1964.43"/><polygon class="cls-17" points="5038.61 1964.43 5038.61 1836.85 5068.38 1836.85 5062.29 1802.82 5018.45 1802.82 5018.45 1998.47 5097.3 1998.47 5091.21 1964.43 5038.61 1964.43"/><polygon class="cls-18" points="5133.05 1802.82 5062.29 1802.82 5068.38 1836.85 5112.89 1836.85 5112.89 1964.43 5091.21 1964.43 5097.3 1998.47 5133.05 1998.47 5133.05 1802.82"/><polygon class="cls-19" points="5112.89 1964.43 5112.89 1836.85 5068.38 1836.85 5091.21 1964.43 5112.89 1964.43"/><polygon class="cls-20" points="5038.61 1964.43 5091.21 1964.43 5068.38 1836.85 5038.61 1836.85 5038.61 1964.43"/><polygon class="cls-17" points="4699.47 2247.05 4699.47 2119.47 4729.24 2119.47 4723.15 2085.44 4679.31 2085.44 4679.31 2281.08 4758.16 2281.08 4752.07 2247.05 4699.47 2247.05"/><polygon class="cls-18" points="4793.91 2085.44 4723.15 2085.44 4729.24 2119.47 4773.75 2119.47 4773.75 2247.05 4752.07 2247.05 4758.16 2281.08 4793.91 2281.08 4793.91 2085.44"/><polygon class="cls-19" points="4773.75 2247.05 4773.75 2119.47 4729.24 2119.47 4752.07 2247.05 4773.75 2247.05"/><polygon class="cls-20" points="4699.47 2247.05 4752.07 2247.05 4729.24 2119.47 4699.47 2119.47 4699.47 2247.05"/><polygon class="cls-17" points="4869.03 2247.05 4869.03 2119.47 4898.81 2119.47 4892.72 2085.44 4848.88 2085.44 4848.88 2281.08 4927.73 2281.08 4921.64 2247.05 4869.03 2247.05"/><polygon class="cls-18" points="4963.48 2085.44 4892.72 2085.44 4898.81 2119.47 4943.32 2119.47 4943.32 2247.05 4921.64 2247.05 4927.73 2281.08 4963.48 2281.08 4963.48 2085.44"/><polygon class="cls-19" points="4943.32 2247.05 4943.32 2119.47 4898.81 2119.47 4921.64 2247.05 4943.32 2247.05"/><polygon class="cls-20" points="4869.03 2247.05 4921.64 2247.05 4898.81 2119.47 4869.03 2119.47 4869.03 2247.05"/><polygon class="cls-17" points="5038.61 2247.05 5038.61 2119.47 5068.38 2119.47 5062.29 2085.44 5018.45 2085.44 5018.45 2281.08 5097.3 2281.08 5091.21 2247.05 5038.61 2247.05"/><polygon class="cls-18" points="5133.05 2085.44 5062.29 2085.44 5068.38 2119.47 5112.89 2119.47 5112.89 2247.05 5091.21 2247.05 5097.3 2281.08 5133.05 2281.08 5133.05 2085.44"/><polygon class="cls-19" points="5112.89 2247.05 5112.89 2119.47 5068.38 2119.47 5091.21 2247.05 5112.89 2247.05"/><polygon class="cls-20" points="5038.61 2247.05 5091.21 2247.05 5068.38 2119.47 5038.61 2119.47 5038.61 2247.05"/><polygon class="cls-17" points="4699.47 2529.67 4699.47 2402.09 4729.24 2402.09 4723.15 2368.05 4679.31 2368.05 4679.31 2563.7 4758.16 2563.7 4752.07 2529.67 4699.47 2529.67"/><polygon class="cls-18" points="4793.91 2368.05 4723.15 2368.05 4729.24 2402.09 4773.75 2402.09 4773.75 2529.67 4752.07 2529.67 4758.16 2563.7 4793.91 2563.7 4793.91 2368.05"/><polygon class="cls-19" points="4773.75 2529.67 4773.75 2402.09 4729.24 2402.09 4752.07 2529.67 4773.75 2529.67"/><polygon class="cls-20" points="4699.47 2529.67 4752.07 2529.67 4729.24 2402.09 4699.47 2402.09 4699.47 2529.67"/><polygon class="cls-17" points="4869.03 2529.67 4869.03 2402.09 4898.81 2402.09 4892.72 2368.05 4848.88 2368.05 4848.88 2563.7 4927.73 2563.7 4921.64 2529.67 4869.03 2529.67"/><polygon class="cls-18" points="4963.48 2368.05 4892.72 2368.05 4898.81 2402.09 4943.32 2402.09 4943.32 2529.67 4921.64 2529.67 4927.73 2563.7 4963.48 2563.7 4963.48 2368.05"/><polygon class="cls-19" points="4943.32 2529.67 4943.32 2402.09 4898.81 2402.09 4921.64 2529.67 4943.32 2529.67"/><polygon class="cls-20" points="4869.03 2529.67 4921.64 2529.67 4898.81 2402.09 4869.03 2402.09 4869.03 2529.67"/><polygon class="cls-17" points="5038.61 2529.67 5038.61 2402.09 5068.38 2402.09 5062.29 2368.05 5018.45 2368.05 5018.45 2563.7 5097.3 2563.7 5091.21 2529.67 5038.61 2529.67"/><polygon class="cls-18" points="5133.05 2368.05 5062.29 2368.05 5068.38 2402.09 5112.89 2402.09 5112.89 2529.67 5091.21 2529.67 5097.3 2563.7 5133.05 2563.7 5133.05 2368.05"/><polygon class="cls-19" points="5112.89 2529.67 5112.89 2402.09 5068.38 2402.09 5091.21 2529.67 5112.89 2529.67"/><polygon class="cls-20" points="5038.61 2529.67 5091.21 2529.67 5068.38 2402.09 5038.61 2402.09 5038.61 2529.67"/><polygon class="cls-21" points="3914.32 1010.11 3905.11 963.28 3619.78 963.28 3619.78 1021.42 3634.11 1021.42 3634.11 1010.11 3914.32 1010.11"/><polygon class="cls-22" points="1889.23 2644.65 1889.23 2685.92 1930.67 2685.92 1930.67 2669.28 1889.23 2644.65"/><path class="cls-23" d="M1765.51,2448.29l22.47-31.05-22.47-18-105.16,107.91L1851,2685.92h38.23v-41.27C1838.64,2565.44,1765.51,2448.29,1765.51,2448.29Z"/><polygon class="cls-24" points="1599.67 2569.44 1691.53 2685.92 1851 2685.92 1660.35 2507.18 1599.67 2569.44"/><rect class="cls-25" x="1091.48" y="2488.13" width="114.14" height="31.2"/><rect class="cls-25" x="1091.48" y="2545.46" width="114.14" height="31.2"/><rect class="cls-26" x="1473.16" y="2300.59" width="123.13" height="22.54"/><rect class="cls-27" x="1298.14" y="2296.36" width="191.83" height="31.01"/><polygon class="cls-28" points="1539.43 2387.72 1592.35 2290.36 1628.3 2307.84 1593.35 2482.57 1539.43 2387.72"/><circle class="cls-29" cx="1607.47" cy="2310.06" r="30.76"/><circle class="cls-30" cx="1607.47" cy="2310.06" r="18.31"/><polygon class="cls-31" points="1180.99 2473.58 1180.99 2588.07 1302.2 2588.07 1244.9 2402.99 1180.99 2473.58"/><polygon class="cls-32" points="1407.64 2450.62 1316.78 2313.16 1300.8 2291.76 1259.86 2291.76 1259.86 2386.47 1244.9 2402.99 1302.2 2588.07 1308.79 2588.07 1407.64 2450.62"/><polygon class="cls-33" points="1316.78 2313.16 1356.72 2379.73 1475.53 2430.65 1508.26 2469.44 1458.87 2353.56 1316.78 2313.16"/><path class="cls-34" d="M1646.27,2556.79l-79.88-141.12c-22-37.94-45.93-44.6-45.93-44.6l-61.59-17.51,49.39,115.88,100.07,118.63Z"/><rect class="cls-35" x="1398.95" y="2408.1" width="47.93" height="14.23"/><rect class="cls-35" x="1326.03" y="2427.64" width="47.93" height="14.23" transform="translate(-1036.51 1001.19) rotate(-30)"/><rect class="cls-35" x="1272.65" y="2481.02" width="47.93" height="14.23" transform="translate(-1506.48 2366.96) rotate(-60)"/><rect class="cls-35" x="1253.11" y="2553.94" width="47.93" height="14.23" transform="translate(-1283.98 3838.13) rotate(-90)"/><rect class="cls-35" x="1272.65" y="2626.86" width="47.93" height="14.23" transform="translate(-336.17 5073.87) rotate(-120)"/><rect class="cls-35" x="1326.03" y="2680.24" width="47.93" height="14.23" transform="translate(1175.45 5689.68) rotate(-150)"/><rect class="cls-35" x="1398.95" y="2699.78" width="47.93" height="14.23" transform="translate(2845.83 5413.8) rotate(180)"/><rect class="cls-35" x="1471.87" y="2680.24" width="47.93" height="14.23" transform="translate(4134.95 4266.77) rotate(150)"/><rect class="cls-35" x="1525.26" y="2626.86" width="47.93" height="14.23" transform="translate(4604.92 2609.3) rotate(120)"/><rect class="cls-35" x="1544.79" y="2553.94" width="47.93" height="14.23" transform="translate(4129.81 992.3) rotate(90)"/><rect class="cls-35" x="1525.26" y="2481.02" width="47.93" height="14.23" transform="translate(2929.4 -97.59) rotate(60)"/><rect class="cls-35" x="1471.87" y="2427.64" width="47.93" height="14.23" transform="translate(1417.78 -421.72) rotate(30)"/><circle class="cls-25" cx="1422.92" cy="2561.06" r="146.08" transform="translate(-1394.18 1756.27) rotate(-45)"/><circle class="cls-31" cx="1422.92" cy="2561.06" r="83.93" transform="translate(-1394.18 1756.27) rotate(-45)"/><circle class="cls-30" cx="1422.92" cy="2561.06" r="34.32"/><circle class="cls-29" cx="1636.42" cy="2581.34" r="30.76"/><circle class="cls-30" cx="1636.42" cy="2581.34" r="18.31"/><path class="cls-36" d="M1153,2042.25h-75.88v333.48h14.33c20.86-127.71,50.75-225,76.76-292.56Z"/><path class="cls-36" d="M937.36,2042.25v333.48h3.7c8.71-80.35,34.31-202.94,106.66-333.48Z"/><path class="cls-37" d="M941.06,2375.73h108.13V2042.25h-1.47C975.37,2172.79,949.77,2295.38,941.06,2375.73Z"/><path class="cls-38" d="M1026.46,2023.94a20.73,20.73,0,0,0,.26-3.16v-37.44a21.44,21.44,0,0,0-39.08-12.21C995.51,1988.05,1007.74,2007.48,1026.46,2023.94Z"/><path class="cls-39" d="M987.64,1971.13a21.29,21.29,0,0,0-3.85,12.21v37.44a21.45,21.45,0,0,0,42.67,3.16C1007.74,2007.48,995.51,1988.05,987.64,1971.13Z"/><polygon class="cls-30" points="455.59 2507.18 462.37 2530.16 638.58 2530.16 658.29 2482.24 455.59 2507.18"/><rect class="cls-25" x="874.32" y="2011.89" width="294.8" height="38.94" rx="17.46"/><path class="cls-32" d="M556,2219c-61,0-75.79,50.46-75.79,50.46l-35.11,237.75H624.41v80.89h264.4L664.62,2219Z"/><polygon class="cls-31" points="933.03 2391.3 931.23 2218.97 664.62 2218.97 888.81 2588.07 1124.95 2588.07 1124.95 2477.13 1153.03 2457.61 1153.03 2408.1 933.03 2391.3"/><path class="cls-37" d="M1236.9,2267.9l-68.66-184.73c-26,67.56-55.9,164.85-76.76,292.56H1236.9Z"/><polygon class="cls-25" points="1236.9 2375.73 1077.14 2375.73 1077.14 2042.25 1049.19 2042.25 1049.19 2375.73 937.36 2375.73 937.36 2042.25 901.41 2042.25 901.41 2408.1 1219.03 2408.1 1236.9 2389.18 1236.9 2375.73"/><rect class="cls-35" x="692.04" y="2408.1" width="47.93" height="14.23"/><rect class="cls-35" x="619.12" y="2427.64" width="47.93" height="14.23" transform="translate(-1131.22 647.74) rotate(-30)"/><rect class="cls-35" x="565.74" y="2481.02" width="47.93" height="14.23" transform="translate(-1859.94 1754.76) rotate(-60)"/><rect class="cls-35" x="546.2" y="2553.94" width="47.93" height="14.23" transform="translate(-1990.9 3131.22) rotate(-90)"/><rect class="cls-35" x="565.74" y="2626.86" width="47.93" height="14.23" transform="translate(-1396.54 4461.66) rotate(-120)"/><rect class="cls-35" x="619.12" y="2680.24" width="47.93" height="14.23" transform="matrix(-0.87, -0.5, 0.5, -0.87, -143.67, 5336.22)"/><rect class="cls-35" x="692.04" y="2699.78" width="47.93" height="14.23" transform="translate(1432 5413.8) rotate(180)"/><rect class="cls-35" x="764.96" y="2680.24" width="47.93" height="14.23" transform="translate(2815.83 4620.22) rotate(150)"/><rect class="cls-35" x="818.34" y="2626.86" width="47.93" height="14.23" transform="translate(3544.55 3221.51) rotate(120)"/><rect class="cls-35" x="837.88" y="2553.94" width="47.93" height="14.23" transform="translate(3422.9 1699.21) rotate(90)"/><rect class="cls-35" x="818.34" y="2481.02" width="47.93" height="14.23" transform="translate(2575.94 514.61) rotate(60)"/><rect class="cls-35" x="764.96" y="2427.64" width="47.93" height="14.23" transform="translate(1323.07 -68.27) rotate(30)"/><circle class="cls-25" cx="716" cy="2561.06" r="146.08" transform="translate(-1601.23 1256.41) rotate(-45)"/><circle class="cls-31" cx="716" cy="2561.06" r="83.93" transform="translate(-1601.23 1256.41) rotate(-45)"/><circle class="cls-30" cx="716" cy="2561.06" r="34.32"/><path class="cls-40" d="M745.65,2202.67H717.7v-56.82c0-3.58-1.25-14.41-7.15-20.33-3.16-3.18-7.58-4.73-13.49-4.73h-20v-28h20c13.46,0,25,4.55,33.5,13.16,14.82,15.07,15.13,37.06,15.09,40.19Z"/><polygon class="cls-37" points="901.41 2050.83 890.31 2050.83 852.71 2197.51 901.41 2197.51 901.41 2050.83"/><rect class="cls-40" x="767.12" y="2186.27" width="117.57" height="20.22" rx="9.06"/><polygon class="cls-25" points="901.41 2197.51 625.35 2197.51 577.27 2218.97 901.41 2218.97 901.41 2197.51"/><polygon class="cls-25" points="901.41 2408.1 868.96 2375.73 868.96 2218.97 577.27 2218.97 701.87 2208.99 916.03 2208.99 901.41 2408.1"/><rect class="cls-25" x="920.72" y="2459.6" width="16.64" height="90.98" rx="7.46"/><rect class="cls-25" x="950.67" y="2459.6" width="16.64" height="90.98" rx="7.46"/><rect class="cls-25" x="980.63" y="2459.6" width="16.64" height="90.98" rx="7.46"/><rect class="cls-25" x="1010.58" y="2459.6" width="16.64" height="90.98" rx="7.46"/><rect class="cls-25" x="1040.53" y="2459.6" width="16.64" height="90.98" rx="7.46"/><rect class="cls-25" x="1070.49" y="2459.6" width="16.64" height="90.98" rx="7.46"/><rect class="cls-35" x="436.63" y="2456.36" width="77.38" height="67.13" rx="11"/><path class="cls-25" d="M479.4,2456.36l39.09-229.52s-34,13.68-38.26,42.59l-27.61,186.93Z"/><rect class="cls-41" x="2954.29" y="2331.15" width="202.37" height="248.7"/><polygon class="cls-42" points="2990.48 2359.41 2990.48 2551.59 3070.34 2551.59 3019.51 2359.41 2990.48 2359.41"/><polygon class="cls-43" points="3120.48 2359.41 3019.51 2359.41 3070.34 2551.59 3120.48 2551.59 3120.48 2359.41"/><rect class="cls-41" x="3212.69" y="2331.15" width="202.37" height="248.7"/><polygon class="cls-42" points="3248.87 2359.41 3248.87 2551.59 3328.74 2551.59 3277.9 2359.41 3248.87 2359.41"/><polygon class="cls-43" points="3378.88 2359.41 3277.9 2359.41 3328.74 2551.59 3378.88 2551.59 3378.88 2359.41"/><rect class="cls-41" x="3471.08" y="2331.15" width="202.37" height="248.7"/><polygon class="cls-42" points="3507.26 2359.41 3507.26 2551.59 3587.13 2551.59 3536.29 2359.41 3507.26 2359.41"/><polygon class="cls-43" points="3637.27 2359.41 3536.29 2359.41 3587.13 2551.59 3637.27 2551.59 3637.27 2359.41"/><rect class="cls-41" x="2954.29" y="1495.41" width="202.37" height="248.7"/><polygon class="cls-42" points="2990.48 1523.67 2990.48 1715.85 3070.34 1715.85 3019.51 1523.67 2990.48 1523.67"/><polygon class="cls-43" points="3120.48 1523.67 3019.51 1523.67 3070.34 1715.85 3120.48 1715.85 3120.48 1523.67"/><rect class="cls-41" x="3212.69" y="1495.41" width="202.37" height="248.7"/><polygon class="cls-42" points="3248.87 1523.67 3248.87 1715.85 3328.74 1715.85 3277.9 1523.67 3248.87 1523.67"/><polygon class="cls-43" points="3378.88 1523.67 3277.9 1523.67 3328.74 1715.85 3378.88 1715.85 3378.88 1523.67"/><rect class="cls-41" x="3471.08" y="1495.41" width="202.37" height="248.7"/><polygon class="cls-42" points="3507.26 1523.67 3507.26 1715.85 3587.13 1715.85 3536.29 1523.67 3507.26 1523.67"/><polygon class="cls-43" points="3637.27 1523.67 3536.29 1523.67 3587.13 1715.85 3637.27 1715.85 3637.27 1523.67"/><rect class="cls-41" x="2954.29" y="1773.99" width="202.37" height="248.7"/><polygon class="cls-42" points="2990.48 1802.25 2990.48 1994.43 3070.34 1994.43 3019.51 1802.25 2990.48 1802.25"/><polygon class="cls-43" points="3120.48 1802.25 3019.51 1802.25 3070.34 1994.43 3120.48 1994.43 3120.48 1802.25"/><rect class="cls-41" x="3212.69" y="1773.99" width="202.37" height="248.7"/><polygon class="cls-42" points="3248.87 1802.25 3248.87 1994.43 3328.74 1994.43 3277.9 1802.25 3248.87 1802.25"/><polygon class="cls-43" points="3378.88 1802.25 3277.9 1802.25 3328.74 1994.43 3378.88 1994.43 3378.88 1802.25"/><rect class="cls-41" x="3471.08" y="1773.99" width="202.37" height="248.7"/><polygon class="cls-42" points="3507.26 1802.25 3507.26 1994.43 3587.13 1994.43 3536.29 1802.25 3507.26 1802.25"/><polygon class="cls-43" points="3637.27 1802.25 3536.29 1802.25 3587.13 1994.43 3637.27 1994.43 3637.27 1802.25"/><rect class="cls-41" x="2954.29" y="2052.57" width="202.37" height="248.7"/><polygon class="cls-42" points="2990.48 2080.83 2990.48 2273.01 3070.34 2273.01 3019.51 2080.83 2990.48 2080.83"/><polygon class="cls-43" points="3120.48 2080.83 3019.51 2080.83 3070.34 2273.01 3120.48 2273.01 3120.48 2080.83"/><rect class="cls-41" x="3212.69" y="2052.57" width="202.37" height="248.7"/><polygon class="cls-42" points="3248.87 2080.83 3248.87 2273.01 3328.74 2273.01 3277.9 2080.83 3248.87 2080.83"/><polygon class="cls-43" points="3378.88 2080.83 3277.9 2080.83 3328.74 2273.01 3378.88 2273.01 3378.88 2080.83"/><rect class="cls-41" x="3471.08" y="2052.57" width="202.37" height="248.7"/><polygon class="cls-42" points="3507.26 2080.83 3507.26 2273.01 3587.13 2273.01 3536.29 2080.83 3507.26 2080.83"/><polygon class="cls-43" points="3637.27 2080.83 3536.29 2080.83 3587.13 2273.01 3637.27 2273.01 3637.27 2080.83"/><polygon class="cls-14" points="3723.53 1425.35 3207.14 1425.35 3496.63 2703.39 3723.53 2703.39 3723.53 1425.35"/><rect class="cls-41" x="2954.29" y="2331.15" width="202.37" height="248.7"/><polygon class="cls-42" points="2990.48 2359.41 2990.48 2551.59 3070.34 2551.59 3019.51 2359.41 2990.48 2359.41"/><polygon class="cls-43" points="3120.48 2359.41 3019.51 2359.41 3070.34 2551.59 3120.48 2551.59 3120.48 2359.41"/><rect class="cls-41" x="3212.69" y="2331.15" width="202.37" height="248.7"/><polygon class="cls-42" points="3248.87 2359.41 3248.87 2551.59 3328.74 2551.59 3277.9 2359.41 3248.87 2359.41"/><polygon class="cls-43" points="3378.88 2359.41 3277.9 2359.41 3328.74 2551.59 3378.88 2551.59 3378.88 2359.41"/><rect class="cls-41" x="3471.08" y="2331.15" width="202.37" height="248.7"/><polygon class="cls-42" points="3507.26 2359.41 3507.26 2551.59 3587.13 2551.59 3536.29 2359.41 3507.26 2359.41"/><polygon class="cls-43" points="3637.27 2359.41 3536.29 2359.41 3587.13 2551.59 3637.27 2551.59 3637.27 2359.41"/><rect class="cls-41" x="2954.29" y="1495.41" width="202.37" height="248.7"/><polygon class="cls-42" points="2990.48 1523.67 2990.48 1715.85 3070.34 1715.85 3019.51 1523.67 2990.48 1523.67"/><polygon class="cls-43" points="3120.48 1523.67 3019.51 1523.67 3070.34 1715.85 3120.48 1715.85 3120.48 1523.67"/><rect class="cls-41" x="3212.69" y="1495.41" width="202.37" height="248.7"/><polygon class="cls-42" points="3248.87 1523.67 3248.87 1715.85 3328.74 1715.85 3277.9 1523.67 3248.87 1523.67"/><polygon class="cls-43" points="3378.88 1523.67 3277.9 1523.67 3328.74 1715.85 3378.88 1715.85 3378.88 1523.67"/><rect class="cls-41" x="3471.08" y="1495.41" width="202.37" height="248.7"/><polygon class="cls-42" points="3507.26 1523.67 3507.26 1715.85 3587.13 1715.85 3536.29 1523.67 3507.26 1523.67"/><polygon class="cls-43" points="3637.27 1523.67 3536.29 1523.67 3587.13 1715.85 3637.27 1715.85 3637.27 1523.67"/><rect class="cls-41" x="2954.29" y="1773.99" width="202.37" height="248.7"/><polygon class="cls-42" points="2990.48 1802.25 2990.48 1994.43 3070.34 1994.43 3019.51 1802.25 2990.48 1802.25"/><polygon class="cls-43" points="3120.48 1802.25 3019.51 1802.25 3070.34 1994.43 3120.48 1994.43 3120.48 1802.25"/><rect class="cls-41" x="3212.69" y="1773.99" width="202.37" height="248.7"/><polygon class="cls-42" points="3248.87 1802.25 3248.87 1994.43 3328.74 1994.43 3277.9 1802.25 3248.87 1802.25"/><polygon class="cls-43" points="3378.88 1802.25 3277.9 1802.25 3328.74 1994.43 3378.88 1994.43 3378.88 1802.25"/><rect class="cls-41" x="3471.08" y="1773.99" width="202.37" height="248.7"/><polygon class="cls-42" points="3507.26 1802.25 3507.26 1994.43 3587.13 1994.43 3536.29 1802.25 3507.26 1802.25"/><polygon class="cls-43" points="3637.27 1802.25 3536.29 1802.25 3587.13 1994.43 3637.27 1994.43 3637.27 1802.25"/><rect class="cls-41" x="2954.29" y="2052.57" width="202.37" height="248.7"/><polygon class="cls-42" points="2990.48 2080.83 2990.48 2273.01 3070.34 2273.01 3019.51 2080.83 2990.48 2080.83"/><polygon class="cls-43" points="3120.48 2080.83 3019.51 2080.83 3070.34 2273.01 3120.48 2273.01 3120.48 2080.83"/><rect class="cls-41" x="3212.69" y="2052.57" width="202.37" height="248.7"/><polygon class="cls-42" points="3248.87 2080.83 3248.87 2273.01 3328.74 2273.01 3277.9 2080.83 3248.87 2080.83"/><polygon class="cls-43" points="3378.88 2080.83 3277.9 2080.83 3328.74 2273.01 3378.88 2273.01 3378.88 2080.83"/><rect class="cls-41" x="3471.08" y="2052.57" width="202.37" height="248.7"/><polygon class="cls-42" points="3507.26 2080.83 3507.26 2273.01 3587.13 2273.01 3536.29 2080.83 3507.26 2080.83"/><polygon class="cls-43" points="3637.27 2080.83 3536.29 2080.83 3587.13 2273.01 3637.27 2273.01 3637.27 2080.83"/><rect class="cls-44" x="3178.96" y="1374.34" width="458.3" height="51.01"/><rect class="cls-45" x="3307.35" y="1295.61" width="36.33" height="78.73"/><rect class="cls-45" x="3391.76" y="1353.75" width="180.51" height="20.59"/><polygon class="cls-4" points="3873.11 1153.72 3873.11 1353.75 3926.77 1353.75 3893.2 1153.72 3873.11 1153.72"/><polygon class="cls-5" points="3976.91 1153.72 3893.2 1153.72 3926.77 1353.75 3976.91 1353.75 3976.91 1153.72"/><polygon class="cls-4" points="4083.05 1153.72 4083.05 1353.75 4136.71 1353.75 4103.15 1153.72 4083.05 1153.72"/><polygon class="cls-5" points="4186.85 1153.72 4103.15 1153.72 4136.71 1353.75 4186.85 1353.75 4186.85 1153.72"/><polygon class="cls-4" points="3873.11 1420.19 3873.11 1620.21 3926.77 1620.21 3893.2 1420.19 3873.11 1420.19"/><polygon class="cls-5" points="3976.91 1420.19 3893.2 1420.19 3926.77 1620.21 3976.91 1620.21 3976.91 1420.19"/><polygon class="cls-4" points="4083.05 1420.19 4083.05 1620.21 4136.71 1620.21 4103.15 1420.19 4083.05 1420.19"/><polygon class="cls-5" points="4186.85 1420.19 4103.15 1420.19 4136.71 1620.21 4186.85 1620.21 4186.85 1420.19"/><polygon class="cls-4" points="3873.11 1686.66 3873.11 1886.68 3926.77 1886.68 3893.2 1686.66 3873.11 1686.66"/><polygon class="cls-5" points="3976.91 1686.66 3893.2 1686.66 3926.77 1886.68 3976.91 1886.68 3976.91 1686.66"/><polygon class="cls-4" points="4083.05 1686.66 4083.05 1886.68 4136.71 1886.68 4103.15 1686.66 4083.05 1686.66"/><polygon class="cls-5" points="4186.85 1686.66 4103.15 1686.66 4136.71 1886.68 4186.85 1886.68 4186.85 1686.66"/><polygon class="cls-4" points="3873.11 1953.13 3873.11 2153.15 3926.77 2153.15 3893.2 1953.13 3873.11 1953.13"/><polygon class="cls-5" points="3976.91 1953.13 3893.2 1953.13 3926.77 2153.15 3976.91 2153.15 3976.91 1953.13"/><polygon class="cls-4" points="4083.05 1953.13 4083.05 2153.15 4136.71 2153.15 4103.15 1953.13 4083.05 1953.13"/><polygon class="cls-5" points="4186.85 1953.13 4103.15 1953.13 4136.71 2153.15 4186.85 2153.15 4186.85 1953.13"/><polygon class="cls-4" points="3873.11 2219.59 3873.11 2419.62 3926.77 2419.62 3893.2 2219.59 3873.11 2219.59"/><polygon class="cls-5" points="3976.91 2219.59 3893.2 2219.59 3926.77 2419.62 3976.91 2419.62 3976.91 2219.59"/><polygon class="cls-4" points="4083.05 2219.59 4083.05 2419.62 4136.71 2419.62 4103.15 2219.59 4083.05 2219.59"/><polygon class="cls-5" points="4186.85 2219.59 4103.15 2219.59 4136.71 2419.62 4186.85 2419.62 4186.85 2219.59"/><polygon class="cls-4" points="3873.11 2486.06 3873.11 2686.09 3926.77 2686.09 3893.2 2486.06 3873.11 2486.06"/><polygon class="cls-5" points="3976.91 2486.06 3893.2 2486.06 3926.77 2686.09 3976.91 2686.09 3976.91 2486.06"/><polygon class="cls-4" points="4083.05 2486.06 4083.05 2686.09 4136.71 2686.09 4103.15 2486.06 4083.05 2486.06"/><polygon class="cls-5" points="4186.85 2486.06 4103.15 2486.06 4136.71 2686.09 4186.85 2686.09 4186.85 2486.06"/><rect class="cls-46" x="4783.51" y="2211.2" width="113.8" height="17.06" transform="translate(2025.43 6739.98) rotate(-82.72)"/><rect class="cls-47" x="4767.74" y="2331.29" width="113.8" height="17.06" transform="translate(1892.53 6829.22) rotate(-82.72)"/><rect class="cls-48" x="4763.2" y="2083.29" width="184.47" height="30.79" transform="translate(2158.62 6649.17) rotate(-82.72)"/><rect class="cls-46" x="4986.45" y="1885.08" width="205.58" height="17.06" transform="translate(326.89 -715.25) rotate(8.31)"/><rect class="cls-48" x="5140.72" y="1909.61" width="333.25" height="30.79" transform="translate(333.71 -746.42) rotate(8.31)"/><rect class="cls-46" x="5546.57" y="2138.74" width="126.15" height="17.06" transform="translate(4509.8 -3757.75) rotate(58.5)"/><rect class="cls-49" x="5578.41" y="2246.94" width="204.49" height="30.79" transform="translate(4641.83 -3763.35) rotate(58.5)"/><path class="cls-50" d="M5445.18,1980.78l12.48-20.46s-9.05-15.39,7.25-27.16c0,0,16.3-10.87,38,6.34l84.66,64.33,3.18,33.47Z"/><path class="cls-51" d="M5521.51,1990.65l-84.69-11,114,131.85c59.46,23.57,137.05,64.84,180.68,130.32l87.52-29.54S5767,2021.52,5521.51,1990.65Z"/><path class="cls-47" d="M5000.66,1776.08l-3-17.09c-22.53,1.69-38.74,24.71-38.74,24.71L4898,1871l86.85,265.88,43.5-186.82Z"/><path class="cls-33" d="M4886.51,1887.46l-34.8,100.5s-13.26,9.51-12.06,23.6c0,0,3.09,32,43.89,27.31l-15.25,374.74,46.18,25.6,70.4-302.38L4898,1871Z"/><circle class="cls-52" cx="5479.85" cy="1952.63" r="15.85" transform="translate(2320.44 6837.26) rotate(-76.72)"/><circle class="cls-53" cx="5479.85" cy="1952.63" r="9.06" transform="translate(-330.11 2245.68) rotate(-22.5)"/><circle class="cls-52" cx="4994.3" cy="1946.36" r="15.47" transform="translate(86.51 4101.58) rotate(-45)"/><circle class="cls-54" cx="4994.3" cy="1946.36" r="8.79" transform="translate(86.51 4101.58) rotate(-45)"/><circle class="cls-52" cx="4865.11" cy="2010.96" r="15.47" transform="translate(1790.17 6283.9) rotate(-76.72)"/><circle class="cls-54" cx="4865.11" cy="2010.96" r="8.79" transform="translate(1790.17 6283.9) rotate(-76.72)"/><path class="cls-55" d="M5017.84,1925.53s-37.11-5.24-44.2,13.4c0,0-8.07,21.44,20.31,29.07l475.52,117.63s35.22,7.63,81.35,25.92l-114-131.85Z"/><path class="cls-24" d="M4924.28,2646.44,4920,2601l-143-126c-18.31,17.91-40.16,48.38-26.83,83.67,0,0,30.09,86.24,175.31,119.41l37.68,7.71-36.07-7.38Z"/><path class="cls-56" d="M4905.7,2449.31s21.73-1.14,22.34-15.3c0,0,1.08-24.4-16.93-27.36l-75.2-12.37s-41.46-8.34-48.66,6.66c0,0-14.08,30,12.44,42.23l-1.95,14.74a145.07,145.07,0,0,0-20.78,17l143,126Z"/><circle class="cls-57" cx="4812.2" cy="2417.86" r="15.47" transform="translate(1654.73 6780.62) rotate(-80.78)"/><circle class="cls-54" cx="4812.2" cy="2417.86" r="8.79" transform="translate(-558.97 2025.59) rotate(-22.5)"/><rect class="cls-58" x="4816.57" y="2301.84" width="103.28" height="18.06" transform="translate(3247.5 -2828.48) rotate(47.1)"/><circle class="cls-57" cx="4898.71" cy="2426.65" r="15.47"/><circle class="cls-54" cx="4898.71" cy="2426.65" r="8.79" transform="translate(1411.48 6636.78) rotate(-76.72)"/><circle class="cls-57" cx="4898.71" cy="2342.71" r="20.07" transform="translate(-523.62 2052.98) rotate(-22.5)"/><circle class="cls-54" cx="4898.71" cy="2342.71" r="11.4" transform="translate(1801.56 6802.9) rotate(-80.78)"/><circle class="cls-57" cx="4833.35" cy="2275.01" r="20.07" transform="translate(-193.02 4084.03) rotate(-45)"/><circle class="cls-54" cx="4833.35" cy="2275.01" r="11.4" transform="translate(-193.02 4084.03) rotate(-45)"/><polygon class="cls-59" points="4924.28 2646.44 4927.05 2678.36 4963.12 2685.74 4962.42 2672.5 4924.28 2646.44"/><rect class="cls-25" x="5790.11" y="2500.81" width="255.44" height="37.19"/><path class="cls-60" d="M6279,2558.6,6037.22,2538h-238.8l-241.73,20.6s-51.87,16.38-51.87,67.48,51.87,62.63,51.87,62.63l241.73,5.88h238.8l241.74-5.88s51.87-11.53,51.87-62.63S6279,2558.6,6279,2558.6Z"/><path class="cls-61" d="M6037.22,2703.39h-239l-241.73-5.87a8.07,8.07,0,0,1-1.7-.21,88.16,88.16,0,0,1-29.15-13.59c-19.38-13.85-29.62-33.78-29.62-57.64,0-23.65,10.1-44.31,29.21-59.75A97.33,97.33,0,0,1,5554,2550.2a9.55,9.55,0,0,1,1.9-.38l241.74-20.6.74,0h238.8q.38,0,.75,0l241.74,20.6a9.55,9.55,0,0,1,1.9.38,97.45,97.45,0,0,1,28.82,16.13c19.11,15.44,29.21,36.1,29.21,59.75,0,23.86-10.25,43.79-29.62,57.64a88.25,88.25,0,0,1-29.15,13.59,8.15,8.15,0,0,1-1.7.21l-241.73,5.87Zm-238.69-17.61h238.59l240.67-5.85c6-1.58,44.23-13.18,44.23-53.85,0-40.83-38.74-56.56-44.9-58.79l-240.27-20.48H5798.8l-240.29,20.48c-6.4,2.28-44.88,17.71-44.88,58.79,0,40.62,38.11,52.25,44.23,53.85Z"/><circle class="cls-62" cx="5658.47" cy="2650.55" r="21.53"/><circle class="cls-62" cx="5775.91" cy="2650.55" r="21.53"/><circle class="cls-62" cx="5834.64" cy="2650.55" r="21.53"/><circle class="cls-62" cx="5952.08" cy="2650.55" r="21.53"/><circle class="cls-62" cx="6010.8" cy="2650.55" r="21.53"/><circle class="cls-62" cx="6069.52" cy="2650.55" r="21.53"/><circle class="cls-62" cx="6128.24" cy="2650.55" r="21.53"/><circle class="cls-62" cx="6186.96" cy="2650.55" r="21.53"/><path class="cls-62" d="M5893.36,2629a21.53,21.53,0,0,0-5.72,42.29c4.29-11.43,10.16-26.92,15.16-40.11A21.47,21.47,0,0,0,5893.36,2629Z"/><path class="cls-62" d="M5717.19,2629a21.53,21.53,0,0,0-15.49,36.48l20.24-35.94A21.15,21.15,0,0,0,5717.19,2629Z"/><path class="cls-63" d="M5721.94,2629.55l-20.24,35.94a21.53,21.53,0,1,0,20.24-35.94Z"/><path class="cls-64" d="M5902.8,2631.19c-5,13.19-10.87,28.68-15.16,40.11a21.53,21.53,0,0,0,15.16-40.11Z"/><polygon class="cls-19" points="5565.5 2596.72 5565.5 2648.59 5834.64 2648.59 5871.4 2596.72 5565.5 2596.72"/><polygon class="cls-65" points="6279.94 2596.72 5871.4 2596.72 5834.64 2648.59 6279.94 2648.59 6279.94 2596.72"/><path class="cls-66" d="M5573.23,2588.61l-4.85,12.14a25,25,0,1,1-17.81,44.46l-4.86,12.13a37.68,37.68,0,1,0,27.52-68.73Z"/><path class="cls-67" d="M5541,2625.59a25,25,0,0,1,25-25,23.76,23.76,0,0,1,2.39.12l4.85-12.14a38.31,38.31,0,0,0-7.24-.7,37.68,37.68,0,0,0-20.28,69.43l4.86-12.13A24.9,24.9,0,0,1,5541,2625.59Z"/><path class="cls-68" d="M5566,2650.55a25,25,0,0,0,2.39-49.8l-17.81,44.46A24.87,24.87,0,0,0,5566,2650.55Z"/><path class="cls-69" d="M5541,2625.59a24.9,24.9,0,0,0,9.54,19.62l17.81-44.46a23.76,23.76,0,0,0-2.39-.12A25,25,0,0,0,5541,2625.59Z"/><path class="cls-67" d="M6244.7,2625.59a25,25,0,0,1,22-24.78c1.63-4.58,3.19-8.93,4.6-12.86-.54,0-1.08,0-1.63,0a37.68,37.68,0,0,0-22.24,68.09c1.18-3.58,2.69-8,4.4-13A24.87,24.87,0,0,1,6244.7,2625.59Z"/><path class="cls-70" d="M6271.29,2588c-1.41,3.93-3,8.28-4.6,12.86a26.32,26.32,0,0,1,3-.18,25,25,0,1,1-17.84,42.4c-1.71,5-3.22,9.39-4.4,13a37.68,37.68,0,1,0,23.87-68.05Z"/><path class="cls-71" d="M6269.66,2650.55a25,25,0,0,0,0-49.92,26.32,26.32,0,0,0-3,.18c-4.92,13.81-10.54,29.68-14.87,42.22A24.86,24.86,0,0,0,6269.66,2650.55Z"/><path class="cls-69" d="M6244.7,2625.59a24.87,24.87,0,0,0,7.12,17.44c4.33-12.54,10-28.41,14.87-42.22A25,25,0,0,0,6244.7,2625.59Z"/><path class="cls-62" d="M5810.17,2554.63a16.63,16.63,0,0,0-9.61,30.21l11-30.13C5811.12,2554.67,5810.65,2554.63,5810.17,2554.63Z"/><path class="cls-63" d="M5811.59,2554.71l-11,30.13a16.63,16.63,0,1,0,11-30.13Z"/><circle class="cls-62" cx="6025.48" cy="2571.27" r="16.64" transform="translate(1344.08 7154.1) rotate(-67.5)"/><circle class="cls-62" cx="5917.82" cy="2571.27" r="16.64"/><path class="cls-72" d="M5768.09,2126c-78.3,46-80.26,187.91-80.26,187.91v161.48h168.34V2126Z"/><path class="cls-73" d="M6008.84,2341.28l-43.06-181.05c-4.89-33.28-35.23-34.26-35.23-34.26h-74.38v349.39h152.67Z"/><rect class="cls-74" x="5687.83" y="2475.36" width="749.67" height="25.45"/><path class="cls-75" d="M5756.34,2158.27s-46,71.44-46,169.31v92h40c6.59-112.34,31.34-201.37,53.79-261.31Z"/><path class="cls-76" d="M5750.37,2419.58h94.05V2158.27h-40.26C5781.71,2218.21,5757,2307.24,5750.37,2419.58Z"/><path class="cls-76" d="M5872.8,2158.27V2309h58.36c-5.34-70.73-22.5-124.54-32.45-150.72Z"/><path class="cls-75" d="M5942.29,2158.27h-43.58c9.95,26.18,27.11,80,32.45,150.72h47.34Z"/><rect class="cls-77" x="6157.6" y="2273.75" width="133.1" height="35.23" rx="15.16"/><path class="cls-77" d="M6130.2,2196.44c-19.89,0-35.23,10-43.19,28.28a74.51,74.51,0,0,0-5.72,25.32,14.19,14.19,0,0,0-5.9,11.48v26.42a14.19,14.19,0,0,0,5.87,11.46V2309h17.62v-10.36a14.16,14.16,0,0,0,4.89-10.69v-26.42a14.14,14.14,0,0,0-4.88-10.67,56.08,56.08,0,0,1,4.46-19.5c5.22-11.64,14-17.3,26.85-17.3H6140v-17.61Z"/><path class="cls-78" d="M6161.79,2288.43H6025.48c-101.78,0-102.76,87.11-102.76,87.11v99.82h437.49Z"/><path class="cls-79" d="M6437.5,2475.36V2330.52c0-37.19-38.16-42.09-38.16-42.09H6161.79l198.42,186.93Z"/><rect class="cls-80" x="6173.26" y="2349.11" width="13.7" height="73.4"/><rect class="cls-80" x="6202.62" y="2349.11" width="13.7" height="73.4"/><rect class="cls-80" x="6231.98" y="2349.11" width="13.7" height="73.4"/><rect class="cls-80" x="6261.34" y="2349.11" width="13.7" height="73.4"/><rect class="cls-80" x="6290.7" y="2349.11" width="13.7" height="73.4"/><rect class="cls-80" x="6320.06" y="2349.11" width="13.7" height="73.4"/><polygon class="cls-21" points="3914.32 1010.11 3634.11 1010.11 3634.11 1021.42 3916.55 1021.42 3914.32 1010.11"/><polygon class="cls-81" points="3905.11 963.28 3914.32 1010.11 3916.55 1021.42 4425.85 1021.42 4440.18 1021.42 4440.18 963.28 3905.11 963.28"/><path class="cls-82" d="M3375.92,2701.79H4381.28a1558.64,1558.64,0,0,0-556.5-458.09C3597.3,2291.29,3419,2472.67,3375.92,2701.79Z"/><path class="cls-83" d="M4381.28,2701.79h130.16c-50.32-267.77-285.37-470.37-567.76-470.37a580,580,0,0,0-118.9,12.28A1558.64,1558.64,0,0,1,4381.28,2701.79Z"/><circle class="cls-83" cx="3775.76" cy="2415.15" r="26.72"/><circle class="cls-83" cx="3970.81" cy="2553.82" r="44.03"/><circle class="cls-82" cx="4033.73" cy="2288.31" r="34.32"/><circle class="cls-82" cx="4233.04" cy="2373.23" r="29.29" transform="translate(420.55 5375.86) rotate(-67.5)"/><circle class="cls-82" cx="4318.2" cy="2497.73" r="18.88" transform="translate(895.17 6126.55) rotate(-76.72)"/><circle class="cls-82" cx="4414.21" cy="2626.74" r="28.89" transform="translate(-564.49 3890.67) rotate(-45)"/><circle class="cls-83" cx="3555.78" cy="2581.29" r="31.8"/><circle class="cls-83" cx="3757.32" cy="2604.24" r="18.44" transform="translate(359.48 5662.72) rotate(-76.72)"/><circle class="cls-83" cx="4200.58" cy="2636.74" r="32.47" transform="translate(669.28 6119.15) rotate(-76.72)"/><path class="cls-84" d="M232.27,2380.59a11.73,11.73,0,0,0-11.7,11.7V2713.5a11.73,11.73,0,0,0,11.7,11.7h1.53V2380.59Z"/><path class="cls-85" d="M236.52,2380.59H233.8V2725.2h2.72a11.73,11.73,0,0,0,11.7-11.7V2392.29A11.73,11.73,0,0,0,236.52,2380.59Z"/><circle class="cls-86" cx="234.39" cy="2284.45" r="115.95"/><polygon class="cls-87" points="296.31 2284.45 233.85 2248.4 233.85 2267.91 172.48 2267.91 172.48 2301 233.85 2301 233.85 2320.51 296.31 2284.45"/><polygon class="cls-63" points="2201.31 51.33 2192.49 3.73 2190.93 3.44 2189.38 3.73 2180.55 51.33 2103.31 468.05 2123.37 471.77 2190.93 107.32 2258.49 471.77 2278.55 468.05 2201.31 51.33"/><rect class="cls-88" x="2154.71" y="806.61" width="19.65" height="233.57" transform="translate(-165.48 1253.39) rotate(-31.16)"/><rect class="cls-88" x="1731.69" y="292.01" width="19.65" height="233.57" transform="translate(582.21 1771.15) rotate(-62.81)"/><rect class="cls-88" x="1929.45" y="292.01" width="19.65" height="233.57" transform="translate(689.62 1947.06) rotate(-62.81)"/><rect class="cls-88" x="2127.22" y="292.01" width="19.65" height="233.57" transform="translate(797.02 2122.97) rotate(-62.81)"/><rect class="cls-88" x="2323.75" y="292.01" width="19.65" height="233.57" transform="translate(903.77 2297.8) rotate(-62.81)"/><rect class="cls-88" x="2520.28" y="292.01" width="19.65" height="233.57" transform="translate(1010.51 2472.62) rotate(-62.81)"/><rect class="cls-88" x="2715.58" y="292.01" width="19.65" height="233.57" transform="translate(1116.57 2646.34) rotate(-62.81)"/><rect class="cls-88" x="2912.12" y="292.01" width="19.65" height="233.57" transform="translate(1223.32 2821.17) rotate(-62.81)"/><rect class="cls-88" x="3107.42" y="292.01" width="19.65" height="233.57" transform="translate(1329.39 2994.9) rotate(-62.81)"/><rect class="cls-88" x="2154.71" y="1006.92" width="19.65" height="233.57" transform="translate(-269.14 1282.3) rotate(-31.16)"/><rect class="cls-88" x="2154.71" y="1185.37" width="19.65" height="233.57" transform="translate(-361.49 1308.05) rotate(-31.16)"/><rect class="cls-88" x="2154.71" y="1375.15" width="19.65" height="233.57" transform="translate(-459.7 1335.44) rotate(-31.16)"/><rect class="cls-88" x="2154.71" y="1563.32" width="19.65" height="233.57" transform="translate(-557.07 1362.6) rotate(-31.16)"/><rect class="cls-88" x="2154.71" y="1751.48" width="19.65" height="233.57" transform="translate(-654.45 1389.75) rotate(-31.16)"/><rect class="cls-88" x="2154.71" y="1941.27" width="19.65" height="233.57" transform="translate(-752.66 1417.15) rotate(-31.16)"/><rect class="cls-88" x="2154.71" y="2131.05" width="19.65" height="233.57" transform="translate(-850.87 1444.54) rotate(-31.16)"/><rect class="cls-89" x="2094.24" y="818.38" width="140.6" height="22.68"/><rect class="cls-89" x="1574.18" y="394.32" width="140.6" height="22.68" transform="translate(2050.13 -1238.82) rotate(90)"/><rect class="cls-89" x="1770.71" y="394.32" width="140.6" height="22.68" transform="translate(2246.67 -1435.35) rotate(90)"/><rect class="cls-89" x="1967.25" y="394.32" width="140.6" height="22.68" transform="translate(2443.2 -1631.89) rotate(90)"/><rect class="cls-89" x="2163.78" y="394.32" width="140.6" height="22.68" transform="translate(2639.74 -1828.42) rotate(90)"/><rect class="cls-89" x="2360.31" y="394.32" width="140.6" height="22.68" transform="translate(2836.27 -2024.95) rotate(90)"/><rect class="cls-89" x="2556.85" y="394.32" width="140.6" height="22.68" transform="translate(3032.8 -2221.49) rotate(90)"/><rect class="cls-89" x="2753.38" y="394.32" width="140.6" height="22.68" transform="translate(3229.34 -2418.02) rotate(90)"/><rect class="cls-89" x="2949.91" y="394.32" width="140.6" height="22.68" transform="translate(3425.87 -2614.55) rotate(90)"/><rect class="cls-89" x="3146.45" y="394.32" width="140.6" height="22.68" transform="translate(3622.4 -2811.09) rotate(90)"/><rect class="cls-89" x="2094.24" y="1007.35" width="140.6" height="22.68"/><rect class="cls-89" x="2094.24" y="1196.33" width="140.6" height="22.68"/><polygon class="cls-90" points="1637.75 477.75 1628.52 465.78 2189.63 33.11 3020.47 339.61 3015.24 353.79 2192.24 50.19 1637.75 477.75"/><rect class="cls-89" x="2094.24" y="1385.3" width="140.6" height="22.68"/><rect class="cls-89" x="2094.24" y="1574.28" width="140.6" height="22.68"/><rect class="cls-89" x="2094.24" y="1763.25" width="140.6" height="22.68"/><rect class="cls-89" x="2094.24" y="1952.23" width="140.6" height="22.68"/><rect class="cls-89" x="2094.24" y="2141.2" width="140.6" height="22.68"/><rect class="cls-89" x="2094.24" y="2330.18" width="140.6" height="22.68"/><rect class="cls-91" x="2089.7" y="458.57" width="27.21" height="2149.78"/><rect class="cls-91" x="2216.7" y="458.57" width="27.21" height="2149.78"/><polygon class="cls-92" points="2001.84 2521.14 2001.84 2732.03 2222.89 2732.03 2072.74 2521.14 2001.84 2521.14"/><polygon class="cls-93" points="2331.78 2521.14 2072.74 2521.14 2222.89 2732.03 2331.78 2732.03 2331.78 2521.14"/><rect class="cls-93" x="2089.7" y="458.57" width="237.35" height="247.18" rx="25"/><path class="cls-94" d="M2227.27,494.85a19,19,0,0,0-18.89,18.9V652.84a18.94,18.94,0,0,0,18.89,18.89h50l-43.1-176.88Z"/><path class="cls-95" d="M2284,494.85h-49.79l43.1,176.88H2284a18.94,18.94,0,0,0,18.89-18.89V513.75A19,19,0,0,0,2284,494.85Z"/><rect class="cls-91" x="1520.89" y="458.57" width="1788.83" height="22.68"/><rect class="cls-91" x="1529.58" y="335.36" width="1780.14" height="22.68"/><polygon class="cls-96" points="2179.45 3.17 2179.34 3.73 2180.9 3.44 2179.45 3.17"/><polygon class="cls-96" points="2182.35 3.17 2180.9 3.44 2182.45 3.73 2182.35 3.17"/><circle class="cls-97" cx="2190.93" cy="41.65" r="41.65"/><circle class="cls-97" cx="3013.11" cy="346.7" r="41.65"/><circle class="cls-97" cx="1638.37" cy="467.64" r="41.65"/><rect class="cls-89" x="2921.95" y="481.25" width="222.23" height="39.31"/><rect class="cls-98" x="2958.98" y="572.71" width="24.94" height="493.6"/><polygon class="cls-99" points="2973.72 520.55 2969.19 520.55 2943.49 520.55 2954.07 599.17 2969.19 599.17 2973.72 599.17 2988.84 599.17 2999.43 520.55 2973.72 520.55"/><rect class="cls-98" x="3082.2" y="572.71" width="24.94" height="493.6"/><polygon class="cls-99" points="3096.94 520.55 3092.4 520.55 3066.7 520.55 3077.28 599.17 3092.4 599.17 3096.94 599.17 3112.05 599.17 3122.64 520.55 3096.94 520.55"/><polygon class="cls-19" points="3134.54 1144.17 3134.54 1066.31 3035.14 1066.31 3030.98 1066.31 2931.58 1066.31 2931.58 1099.64 3103.03 1188.95 3134.54 1144.17"/><path class="cls-100" d="M3042.31,1239.41c.07,2.44.1,4.27.1,5.49a51.05,51.05,0,0,1-3,18.6,42.29,42.29,0,0,1-7.21,11.88,136.63,136.63,0,0,1-13.16,12.76q-9.49,8.38-12.35,13.36a21.59,21.59,0,0,0-2.84,10.87q0,10.67,8.33,18.75a28.25,28.25,0,0,0,20.42,8.08q11.7,0,19.51-7.32t10.27-22.86l18.8,2.23q-2.55,20.84-15.09,31.91t-33.18,11.08q-21.84,0-34.85-11.89t-13-28.76a36.37,36.37,0,0,1,4.57-18q4.57-8.23,17.89-20,8.94-7.93,11.68-11.69a26,26,0,0,0,4.07-8.63q1.32-4.89,1.52-15.86Z"/><polygon class="cls-91" points="2931.58 1099.64 2931.58 1144.17 3003.39 1246.22 3030.98 1246.22 3035.14 1246.22 3062.73 1246.22 3103.03 1188.95 2931.58 1099.64"/><path class="cls-82" d="M2270,2701.79h745.22a1155.44,1155.44,0,0,0-412.5-339.56C2434.05,2397.51,2301.87,2532,2270,2701.79Z"/><path class="cls-83" d="M3015.17,2701.79h96.48c-37.3-198.48-211.53-348.66-420.85-348.66a430,430,0,0,0-88.13,9.1A1155.44,1155.44,0,0,1,3015.17,2701.79Z"/><circle class="cls-83" cx="2566.33" cy="2489.32" r="19.81" transform="translate(-446.02 4415.07) rotate(-76.72)"/><circle class="cls-83" cx="2710.91" cy="2592.11" r="32.63" transform="translate(-281.97 4852.81) rotate(-80.78)"/><circle class="cls-82" cx="2757.55" cy="2395.3" r="25.44"/><circle class="cls-82" cx="2905.29" cy="2458.25" r="21.71"/><circle class="cls-82" cx="2968.41" cy="2550.53" r="14"/><circle class="cls-82" cx="3039.58" cy="2646.16" r="21.41" transform="translate(-59.3 5222.62) rotate(-80.78)"/><circle class="cls-83" cx="2403.27" cy="2612.47" r="23.57"/><circle class="cls-83" cx="2552.66" cy="2629.48" r="13.67" transform="translate(-451.76 4727.99) rotate(-80.78)"/><circle class="cls-83" cx="2881.23" cy="2653.57" r="24.06" transform="translate(-1032.47 2814.55) rotate(-45)"/><path class="cls-101" d="M3410.14,2512.63H3035.79a10.51,10.51,0,0,1-10.47-10.47h0a10.5,10.5,0,0,1,10.47-10.47h374.35a10.5,10.5,0,0,1,10.47,10.47h0A10.51,10.51,0,0,1,3410.14,2512.63Z"/><path class="cls-102" d="M3031.67,2234.5a12.75,12.75,0,0,0-12.71,12.71v465.5a12.75,12.75,0,0,0,12.71,12.71h0V2234.5Z"/><path class="cls-103" d="M3031.67,2234.5v490.92a12.75,12.75,0,0,0,12.72-12.71v-465.5A12.75,12.75,0,0,0,3031.67,2234.5Z"/><path class="cls-102" d="M3418.75,2234.5a12.75,12.75,0,0,0-12.71,12.71v465.5a12.75,12.75,0,0,0,12.71,12.71h0V2234.5Z"/><path class="cls-103" d="M3418.75,2234.5v490.92a12.75,12.75,0,0,0,12.71-12.71v-465.5A12.75,12.75,0,0,0,3418.75,2234.5Z"/><rect class="cls-104" x="2968.41" y="2262.09" width="513.6" height="118.64"/><polygon class="cls-105" points="2981.66 2380.73 3022.14 2262.09 3077.96 2262.09 3038.19 2380.73 2981.66 2380.73"/><polygon class="cls-105" points="3079.36 2380.73 3119.84 2262.09 3175.66 2262.09 3135.89 2380.73 3079.36 2380.73"/><polygon class="cls-105" points="3177.06 2380.73 3217.54 2262.09 3273.36 2262.09 3233.59 2380.73 3177.06 2380.73"/><polygon class="cls-105" points="3274.76 2380.73 3315.24 2262.09 3371.07 2262.09 3331.29 2380.73 3274.76 2380.73"/><polygon class="cls-105" points="3372.46 2380.73 3412.94 2262.09 3468.76 2262.09 3428.99 2380.73 3372.46 2380.73"/><polygon class="cls-106" points="4272.74 2701.79 3203.38 2701.79 0 2701.79 0 2762.26 3193.99 2762.26 4282.13 2762.26 7191.07 2762.26 7191.07 2701.79 4272.74 2701.79"/><path class="cls-93" d="M1347.46,310a25.07,25.07,0,0,0-25,25V481.57a25.07,25.07,0,0,0,25,25H1480.7L1377,310Z"/><path class="cls-107" d="M1520.45,310H1377L1480.7,506.57h39.75a25.07,25.07,0,0,0,25-25V335A25.07,25.07,0,0,0,1520.45,310Z"/><path class="cls-108" d="M3346,345.87a25.07,25.07,0,0,0-25-25h-3.92a25.07,25.07,0,0,0-25,25v8.05L3346,429.74Z"/><path class="cls-100" d="M3292.08,353.92V470.74a25.07,25.07,0,0,0,25,25H3321a25.07,25.07,0,0,0,25-25v-41Z"/></g></g></svg>